<?xml version="1.0" encoding="utf-8"?>
<!-- Generator: Adobe Illustrator 25.4.1, SVG Export Plug-In . SVG Version: 6.00 Build 0)  -->
<svg version="1.1" id="レイアウト用" xmlns="http://www.w3.org/2000/svg" xmlns:xlink="http://www.w3.org/1999/xlink" x="0px"
	 y="0px" viewBox="0 0 96.3 7.8" style="enable-background:new 0 0 96.3 7.8;" xml:space="preserve">
<style type="text/css">
	.st0{fill:#1F296B;}
	.st1{fill:#0099CC;}
</style>
<g>
	<path class="st0" d="M3.1,0l7,0c0.5,0,0.8,0.3,0.8,0.8c0,0.5-0.3,0.8-0.8,0.8h-7c-1,0-1.6,0.5-1.6,1.6v1.5c0,1,0.5,1.6,1.6,1.6h6.2
		V4.7H5.4c-0.5,0-0.8-0.3-0.8-0.8c0-0.5,0.3-0.8,0.8-0.8h3.9c1.1,0,1.6,0.5,1.6,1.6v1.6c0,1-0.5,1.6-1.6,1.6H3.1C1,7.8,0,6.8,0,4.7
		V3.1C0,1.1,1,0,3.1,0z"/>
	<path class="st0" d="M23.1,3.1v1.5c0,2.1-1,3.1-3.1,3.1h-4.7c-2.1,0-3.1-1-3.1-3.1V3.1c0-2.1,1-3.1,3.1-3.1L20,0
		C22.1,0,23.1,1.1,23.1,3.1z M13.7,3.1l0,1.6c0,1,0.5,1.6,1.6,1.6H20c1,0,1.6-0.5,1.6-1.6V3.1c0-1-0.5-1.6-1.6-1.6h-4.7
		C14.3,1.6,13.7,2.1,13.7,3.1z"/>
	<path class="st0" d="M24.4,7V0.8c0-0.5,0.3-0.8,0.8-0.8h9.4c0.5,0,0.8,0.3,0.8,0.8c0,0.5-0.3,0.8-0.8,0.8h-8.6v1.6h7
		c0.5,0,0.8,0.3,0.8,0.8S33.5,4.7,33,4.7h-7v1.6h8.6c0.5,0,0.8,0.3,0.8,0.8c0,0.5-0.3,0.8-0.8,0.8h-9.4C24.6,7.8,24.4,7.5,24.4,7z"
		/>
	<path class="st1" d="M46.7,7.8h-9.4c-0.5,0-0.8-0.2-0.8-0.6s0.1-0.7,0.3-0.9l7.4-4.7h-7c-0.5,0-0.7-0.3-0.7-0.8
		c0-0.5,0.2-0.8,0.8-0.8h9.4c0.5,0,0.8,0.2,0.8,0.6c0,0.4-0.1,0.7-0.3,0.9l-7.5,4.7h7c0.5,0,0.8,0.3,0.8,0.8
		C47.5,7.5,47.2,7.8,46.7,7.8z"/>
	<path class="st0" d="M58.5,7.7c-0.2,0.1-0.5,0.1-0.9-0.1l-3.4-2.8l-3.4,2.8c-0.3,0.2-0.6,0.2-0.8,0.1c-0.2-0.1-0.4-0.3-0.4-0.7
		l-0.8-6.1c-0.1-0.5,0.1-0.8,0.6-0.9C50,0,50.3,0.2,50.3,0.6l0.7,5l2.4-2.2c0.3-0.2,0.5-0.4,0.8-0.4c0.2,0,0.5,0.1,0.8,0.4l2.4,2.2
		l0.7-5.1c0.1-0.5,0.4-0.6,0.9-0.5c0.5,0.1,0.7,0.4,0.7,0.9l-0.8,6C58.9,7.4,58.7,7.6,58.5,7.7z"/>
	<path class="st0" d="M61,7V0.8C61,0.3,61.2,0,61.7,0h9.4c0.5,0,0.8,0.3,0.8,0.8c0,0.5-0.3,0.8-0.8,0.8h-8.6v1.6h7
		c0.5,0,0.8,0.3,0.8,0.8s-0.3,0.8-0.8,0.8h-7v1.6h8.6c0.5,0,0.8,0.3,0.8,0.8c0,0.5-0.3,0.8-0.8,0.8h-9.4C61.2,7.8,61,7.5,61,7z"/>
	<path class="st0" d="M74,0c0.5,0,0.8,0.3,0.8,0.8v5.5h7.8l0-0.8c0-0.5,0.3-0.8,0.8-0.8s0.8,0.3,0.8,0.8V7c0,0.5-0.3,0.8-0.8,0.8H74
		c-0.5,0-0.8-0.3-0.8-0.8V0.8C73.2,0.3,73.4,0,74,0z"/>
	<path class="st0" d="M86.2,0C86.7,0,87,0.3,87,0.8v5.5h7.8l0-0.8c0-0.5,0.3-0.8,0.8-0.8s0.8,0.3,0.8,0.8V7c0,0.5-0.3,0.8-0.8,0.8
		h-9.4c-0.5,0-0.8-0.3-0.8-0.8V0.8C85.4,0.3,85.7,0,86.2,0z"/>
</g>
</svg>
